<?xml version="1.0" encoding="utf-8"?>
<!-- Generator: Adobe Illustrator 25.0.0, SVG Export Plug-In . SVG Version: 6.00 Build 0)  -->
<svg version="1.1" id="Layer_1" xmlns="http://www.w3.org/2000/svg" xmlns:xlink="http://www.w3.org/1999/xlink" x="0px" y="0px"
	 viewBox="0 0 454.8 84.8" style="enable-background:new 0 0 454.8 84.8;" xml:space="preserve">
<style type="text/css">
	.st0{fill:#FFFFFF;}
	.st1{fill:#E85F0B;}
	.st2{fill:#6BB458;}
	.st3{fill:#48BDD6;}
</style>
<g>
	<g>
		<g>
			<g>
				<polygon class="st0" points="173.8,50.7 173.8,50.7 168.5,50.7 155.8,8.2 155.5,8.2 142.7,50.7 137.4,50.7 122.6,0.9 127.6,0.9 
					140.1,45.3 140.2,45.3 153.4,0.9 157.9,0.9 171,45.4 171.1,45.4 183.8,0.9 188.8,0.9 				"/>
			</g>
			<g>
				<g>
					<polygon class="st0" points="229,0.9 229,0.9 229,5.1 201.5,5.1 201.5,23.2 223.6,23.2 223.6,27.1 201.5,27.1 201.5,46.7 
						230.1,46.7 230.1,50.7 196.7,50.7 196.7,0.9 					"/>
				</g>
			</g>
			<g>
				<path class="st0" d="M245.4,46.8L245.4,46.8h13.6c7.8,0,12-3,12-10.3c0-6.5-3.8-9.7-12-9.7h-13.6V46.8z M245.4,22.7L245.4,22.7
					h12.1c7.5,0,10.7-3.2,10.7-9.2c0-5.5-3.1-8.5-10.7-8.5h-12.1V22.7z M264.7,24.3L264.7,24.3v0.1c7.7,1.5,11.2,5.7,11.2,12.2
					c0,8.8-5,14.1-16.5,14.1h-18.7V0.9h16.9c10.2,0,15.4,4.9,15.4,12.3C272.9,19.5,270.3,22.8,264.7,24.3z"/>
			</g>
			<g>
				<path class="st0" d="M300.7,46.8L300.7,46.8h-10.3v-6.8c0.1-4.9,1.7-6,4.9-6.2c3.4,0.1,5.2,1.2,5.4,6.3V46.8z M317.5,31.9
					L317.5,31.9V27l-13.5,9.9c-0.9-4.5-4.1-6.9-8.7-6.9c-2.6,0-4.8,0.9-6.3,2.6c-1.6,1.8-2.4,4.3-2.4,7.5v10.9h30.9v-4h-13.1v-5.6
					L317.5,31.9z"/>
			</g>
			<g>
				<path class="st0" d="M305.7,20.4L305.7,20.4h-7.5c-5.3,0-7.8-2.6-7.9-8.1c0.1-5.5,2.7-7.9,8-8.1h7.4c5.4,0.1,7.9,2.6,8,8.1
					C313.7,17.8,311.1,20.4,305.7,20.4z M314.8,3.3L314.8,3.3c-2.1-2-5-3.1-8.5-3.1h-8.6c-3.5,0-6.4,1.1-8.4,3.1c-2,2.1-3,5.1-3,9
					c0,3.8,1,6.8,3,9c2.1,2,5,3.1,8.5,3.1h8.5c3.6,0,6.5-1.1,8.5-3.1c2-2.1,3-5.1,3-9C317.8,8.5,316.8,5.5,314.8,3.3z"/>
			</g>
			<g>
				<path class="st0" d="M336.1,26.2L336.1,26.2h14.1c7.6,0,10.9-3.6,10.9-10.5c0-7.1-3.3-10.6-10.9-10.6h-14.1V26.2z M365.9,15.5
					L365.9,15.5c0,9.1-5.5,14.7-15.3,14.7h-14.4v20.5h-4.8V0.9h19C360.3,0.9,365.9,6.4,365.9,15.5z"/>
			</g>
			<g>
				<g>
					<path class="st0" d="M408.8,18.7L408.8,18.7c0-9.3-4.9-14.3-14.4-14.3c-9.5,0-14.4,5-14.4,14.2V33c0,9.3,4.9,14.3,14.4,14.3
						c9.5,0,14.4-5,14.4-14.3V18.7z M413.6,18.6L413.6,18.6V33c0,11.3-6.9,18.5-19.2,18.5C382,51.5,375,44.3,375,33V18.7
						c0-11.4,6.9-18.5,19.3-18.5C406.7,0.2,413.6,7.3,413.6,18.6z"/>
				</g>
			</g>
			<g>
				<g>
					<polygon class="st0" points="429.8,0.9 429.8,0.9 429.8,46.5 454.8,46.5 454.8,50.7 425.1,50.7 425.1,0.9 					"/>
				</g>
			</g>
			<g>
				<polygon class="st0" points="173.8,50.7 173.8,50.7 168.5,50.7 155.8,8.2 155.5,8.2 142.7,50.7 137.4,50.7 122.6,0.9 127.6,0.9 
					140.1,45.3 140.2,45.3 153.4,0.9 157.9,0.9 171,45.4 171.1,45.4 183.8,0.9 188.8,0.9 				"/>
			</g>
			<g>
				<g>
					<polygon class="st0" points="229,0.9 229,0.9 229,5.1 201.5,5.1 201.5,23.2 223.6,23.2 223.6,27.1 201.5,27.1 201.5,46.7 
						230.1,46.7 230.1,50.7 196.7,50.7 196.7,0.9 					"/>
				</g>
			</g>
			<g>
				<path class="st0" d="M245.4,46.8L245.4,46.8h13.6c7.8,0,12-3,12-10.3c0-6.5-3.8-9.7-12-9.7h-13.6V46.8z M245.4,22.7L245.4,22.7
					h12.1c7.5,0,10.7-3.2,10.7-9.2c0-5.5-3.1-8.5-10.7-8.5h-12.1V22.7z M264.7,24.3L264.7,24.3v0.1c7.7,1.5,11.2,5.7,11.2,12.2
					c0,8.8-5,14.1-16.5,14.1h-18.7V0.9h16.9c10.2,0,15.4,4.9,15.4,12.3C272.9,19.5,270.3,22.8,264.7,24.3z"/>
			</g>
			<g>
				<path class="st0" d="M300.7,46.8L300.7,46.8h-10.3v-6.8c0.1-4.9,1.7-6,4.9-6.2c3.4,0.1,5.2,1.2,5.4,6.3V46.8z M317.5,31.9
					L317.5,31.9V27l-13.5,9.9c-0.9-4.5-4.1-6.9-8.7-6.9c-2.6,0-4.8,0.9-6.3,2.6c-1.6,1.8-2.4,4.3-2.4,7.5v10.9h30.9v-4h-13.1v-5.6
					L317.5,31.9z"/>
			</g>
			<g>
				<path class="st0" d="M305.7,20.4L305.7,20.4h-7.5c-5.3,0-7.8-2.6-7.9-8.1c0.1-5.5,2.7-7.9,8-8.1h7.4c5.4,0.1,7.9,2.6,8,8.1
					C313.7,17.8,311.1,20.4,305.7,20.4z M314.8,3.3L314.8,3.3c-2.1-2-5-3.1-8.5-3.1h-8.6c-3.5,0-6.4,1.1-8.4,3.1c-2,2.1-3,5.1-3,9
					c0,3.8,1,6.8,3,9c2.1,2,5,3.1,8.5,3.1h8.5c3.6,0,6.5-1.1,8.5-3.1c2-2.1,3-5.1,3-9C317.8,8.5,316.8,5.5,314.8,3.3z"/>
			</g>
			<g>
				<path class="st0" d="M336.1,26.2L336.1,26.2h14.1c7.6,0,10.9-3.6,10.9-10.5c0-7.1-3.3-10.6-10.9-10.6h-14.1V26.2z M365.9,15.5
					L365.9,15.5c0,9.1-5.5,14.7-15.3,14.7h-14.4v20.5h-4.8V0.9h19C360.3,0.9,365.9,6.4,365.9,15.5z"/>
			</g>
			<g>
				<g>
					<path class="st0" d="M408.8,18.7L408.8,18.7c0-9.3-4.9-14.3-14.4-14.3c-9.5,0-14.4,5-14.4,14.2V33c0,9.3,4.9,14.3,14.4,14.3
						c9.5,0,14.4-5,14.4-14.3V18.7z M413.6,18.6L413.6,18.6V33c0,11.3-6.9,18.5-19.2,18.5C382,51.5,375,44.3,375,33V18.7
						c0-11.4,6.9-18.5,19.3-18.5C406.7,0.2,413.6,7.3,413.6,18.6z"/>
				</g>
			</g>
			<g>
				<g>
					<polygon class="st0" points="429.8,0.9 429.8,0.9 429.8,46.5 454.8,46.5 454.8,50.7 425.1,50.7 425.1,0.9 					"/>
				</g>
			</g>
			<g>
				<path class="st0" d="M122.6,67.2h1.6v15.9h9.7v1.4h-11.3V67.2z"/>
				<path class="st0" d="M138,67.2h11.9v1.4h-10.3v6.2h9.6v1.4h-9.6v6.8H150v1.4h-12V67.2z"/>
				<path class="st0" d="M159.8,67.2h1.8l6.8,17.3h-1.8l-2.1-5.4h-7.9l-2.1,5.4h-1.8L159.8,67.2z M157.2,77.7h6.8l-3.3-8.8
					L157.2,77.7z"/>
				<path class="st0" d="M172.4,67.2h6c5.2,0.1,7.9,2.9,7.9,8.6c0,5.7-2.7,8.5-7.9,8.6h-6V67.2z M174,83.1h3.5c5,0,7.1-2.1,7.1-7.2
					c0-5.2-2.2-7.2-7.1-7.2H174V83.1z"/>
				<path class="st0" d="M198.8,67.2h1.8l3.9,15.1h0l4.2-15.1h2.1l4.2,15.1h0l3.9-15.1h1.6l-4.8,17.3h-1.7L209.7,69h0l-4.4,15.4
					h-1.8L198.8,67.2z"/>
				<path class="st0" d="M225,67.2h1.6v17.3H225V67.2z"/>
				<path class="st0" d="M230.8,67.2h13.7v1.4h-6v15.9h-1.6V68.6h-6V67.2z"/>
				<path class="st0" d="M248.5,67.2h1.6v7.5h10.3v-7.5h1.6v17.3h-1.6v-8.4h-10.3v8.4h-1.6V67.2z"/>
				<path class="st0" d="M277.2,67.2h1.6v17.3h-1.6V67.2z"/>
				<path class="st0" d="M284.9,67.2h1.8l10.1,14.6h0V67.2h1.6v17.3h-1.8l-10.1-14.6h0v14.6h-1.6V67.2z"/>
				<path class="st0" d="M304.3,67.2h11v1.4H306v6.2h8.3v1.4H306v8.2h-1.6V67.2z"/>
				<path class="st0" d="M327,66.8c5.4,0,8.1,4.3,8.1,9s-2.7,9-8.1,9c-5.4,0-8.1-4.3-8.1-9S321.5,66.8,327,66.8z M327,83.4
					c4.5,0,6.5-3.8,6.5-7.6c0-3.8-1.9-7.6-6.5-7.6c-4.6,0-6.5,3.8-6.5,7.6C320.5,79.6,322.4,83.4,327,83.4z"/>
				<path class="st0" d="M340.1,67.2h7.9c2.8,0,5.2,1.4,5.2,4.5c0,2.2-1.1,3.9-3.4,4.4v0c2.2,0.3,2.9,1.8,3,3.9
					c0.1,1.2,0.1,3.6,0.8,4.4h-1.8c-0.4-0.7-0.4-2-0.5-2.7c-0.1-2.4-0.4-5.1-3.5-5h-6.2v7.7h-1.6V67.2z M341.7,75.4h6.1
					c2,0,3.7-1.3,3.7-3.4c0-2.1-1.2-3.4-3.7-3.4h-6.1V75.4z"/>
				<path class="st0" d="M358.6,67.2h2.4l6,15.1l5.9-15.1h2.4v17.3h-1.6V69.5h0l-5.9,14.9h-1.5l-5.9-14.9h0v14.9h-1.6V67.2z"/>
				<path class="st0" d="M386.3,67.2h1.8l6.8,17.3h-1.8l-2.1-5.4h-7.9l-2.1,5.4h-1.8L386.3,67.2z M383.6,77.7h6.8l-3.3-8.8
					L383.6,77.7z"/>
				<path class="st0" d="M395.4,67.2H409v1.4h-6v15.9h-1.6V68.6h-6V67.2z"/>
				<path class="st0" d="M413.2,67.2h1.6v17.3h-1.6V67.2z"/>
				<path class="st0" d="M428.1,66.8c5.4,0,8.1,4.3,8.1,9s-2.7,9-8.1,9c-5.4,0-8.1-4.3-8.1-9S422.7,66.8,428.1,66.8z M428.1,83.4
					c4.5,0,6.5-3.8,6.5-7.6c0-3.8-1.9-7.6-6.5-7.6c-4.6,0-6.5,3.8-6.5,7.6C421.6,79.6,423.5,83.4,428.1,83.4z"/>
				<path class="st0" d="M441.2,67.2h1.8l10.1,14.6h0V67.2h1.6v17.3h-1.8l-10.1-14.6h0v14.6h-1.6V67.2z"/>
			</g>
		</g>
	</g>
	<g>
		<polygon class="st1" points="67.9,84.6 45.3,0 54.4,0 77,84.6 		"/>
		<polygon class="st2" points="67.9,84.6 90.6,0 99.7,0 77,84.6 		"/>
		<g>
			<polygon class="st3" points="31.8,84.6 9.1,0 0,0 22.6,84.6 			"/>
			<polygon class="st0" points="31.8,84.6 54.4,0 45.3,0 22.6,84.6 			"/>
		</g>
	</g>
</g>
</svg>
