<svg xmlns="http://www.w3.org/2000/svg" xmlns:xlink="http://www.w3.org/1999/xlink" viewBox="0 0 101.22 108.29"><defs><style>.cls-1,.cls-3{fill:#fff;}.cls-1{stroke:#000;filter:url(#luminosity-invert-noclip);}.cls-1,.cls-2,.cls-3,.cls-5{stroke-miterlimit:10;}.cls-2,.cls-5{fill:#234c5a;stroke:#234c5a;}.cls-3{stroke:#fff;}.cls-4{mask:url(#mask);}.cls-5{stroke-width:1.5px;}</style><filter id="luminosity-invert-noclip" x="27.81" y="22.94" width="45.6" height="45.41" filterUnits="userSpaceOnUse" color-interpolation-filters="sRGB"><feColorMatrix values="-1 0 0 0 1 0 -1 0 0 1 0 0 -1 0 1 0 0 0 1 0" result="invert"/><feFlood flood-color="#fff" result="bg"/><feBlend in="invert" in2="bg"/></filter><mask id="mask" x="27.81" y="22.94" width="45.6" height="45.41" maskUnits="userSpaceOnUse"><circle class="cls-1" cx="50.61" cy="37.53" r="14.09"/></mask></defs><g id="Layer_2" data-name="Layer 2"><g id="White_shield" data-name="White shield"><path id="Outside_shield" data-name="Outside shield" class="cls-2" d="M47.06,107.19C24.41,97.52.68,68.87.5,27.22a10.64,10.64,0,0,1,6.36-9.31C10.53,16.39,45.15,1.85,47.28,1.08a9.85,9.85,0,0,1,6.67,0L94.36,17.91a10.11,10.11,0,0,1,6.36,9.31c0,46.3-28.14,72.22-46.55,80A10.89,10.89,0,0,1,47.06,107.19Z"/><path id="Inside_shield" data-name="Inside shield" class="cls-3" d="M50.61,97.41c19.57-8,40-33.83,40-70.42l-40-16.66h0L10.63,27c0,36.59,19.45,62.08,40,70.42Z"/><g class="cls-4"><path id="Body" class="cls-5" d="M72.66,67.58s-9.87-.1-22-.1-22,.1-22,.1c0-7.25,4.51-15.61,11.58-18.66a1.06,1.06,0,0,1,1.12.17A13,13,0,0,0,50.61,53a13.18,13.18,0,0,0,9.25-3.81A1.06,1.06,0,0,1,60.94,49C68.2,52,72.66,60.21,72.66,67.58Z"/></g><circle id="Head" class="cls-5" cx="50.61" cy="34.39" r="9.37"/></g></g></svg>