<?xml version="1.0" encoding="utf-8"?>
<!-- Generator: Adobe Illustrator 25.2.1, SVG Export Plug-In . SVG Version: 6.00 Build 0)  -->
<svg version="1.1" id="Layer_1" xmlns="http://www.w3.org/2000/svg" xmlns:xlink="http://www.w3.org/1999/xlink" x="0px" y="0px"
	 viewBox="0 0 24.7 23.1" style="enable-background:new 0 0 24.7 23.1;" xml:space="preserve">
<style type="text/css">
	.st0{fill:#0C5267;}
	.st1{fill:#187B98;}
</style>
<g>
	<rect x="0" y="2.9" class="st0" width="9.6" height="2.7"/>
</g>
<g>
	<rect x="15.2" y="2.9" class="st0" width="9.6" height="2.7"/>
</g>
<g>
	<g>
		<path class="st0" d="M12.4,0c-2.3,0-4.2,1.9-4.2,4.2s1.9,4.2,4.2,4.2c2.3,0,4.2-1.9,4.2-4.2S14.7,0,12.4,0z M12.4,6.4
			c-1.2,0-2.2-1-2.2-2.2s1-2.2,2.2-2.2s2.2,1,2.2,2.2S13.6,6.4,12.4,6.4z"/>
	</g>
</g>
<g>
	<path class="st0" d="M10.7,23.1H0V9.5h6l4.7,4.7V23.1z M1.6,21.4h7.5v-6.6l-3.7-3.7H1.6V21.4z"/>
</g>
<g>
	<g>
		<polyline class="st0" points="5.7,10.3 5.7,14.5 9.9,14.5 		"/>
	</g>
	<g>
		<polygon class="st0" points="9.9,15.1 5.2,15.1 5.2,10.3 6.2,10.3 6.2,14 9.9,14 		"/>
	</g>
</g>
<g>
	<path class="st1" d="M24.7,23.1H14V9.5h6l4.7,4.7V23.1z M15.6,21.4h7.5v-6.6l-3.7-3.7h-3.8V21.4z"/>
</g>
<g>
	<g>
		<polyline class="st1" points="19.7,10.3 19.7,14.5 23.9,14.5 		"/>
	</g>
	<g>
		<polygon class="st1" points="23.9,15.1 19.2,15.1 19.2,10.3 20.3,10.3 20.3,14 23.9,14 		"/>
	</g>
</g>
</svg>
