<?xml version="1.0" encoding="utf-8"?>
<!-- Generator: Adobe Illustrator 25.2.1, SVG Export Plug-In . SVG Version: 6.00 Build 0)  -->
<svg version="1.1" id="Layer_1" xmlns="http://www.w3.org/2000/svg" xmlns:xlink="http://www.w3.org/1999/xlink" x="0px" y="0px"
	 viewBox="0 0 29.7 23" style="enable-background:new 0 0 29.7 23;" xml:space="preserve">
<style type="text/css">
	.st0{fill:#0C5267;}
	.st1{fill:#187B98;}
</style>
<g>
	<circle class="st0" cx="7.4" cy="13" r="3.5"/>
</g>
<g>
	<g>
		<path class="st1" d="M29.7,23v-1.3c0-2.1-2.1-3.9-4.8-4.3c-0.7,0.7-1.6,1.2-2.6,1.2c-1,0-1.9-0.5-2.6-1.2
			c-2.8,0.5-4.8,2.2-4.8,4.3V23H29.7z"/>
	</g>
</g>
<g>
	<circle class="st1" cx="22.3" cy="13" r="3.5"/>
</g>
<g>
	<rect x="2.5" y="2.9" class="st0" width="9.6" height="2.7"/>
</g>
<g>
	<rect x="17.6" y="2.9" class="st0" width="9.6" height="2.7"/>
</g>
<g>
	<path class="st0" d="M14.9,0c-2.3,0-4.2,1.9-4.2,4.2s1.9,4.2,4.2,4.2c2.3,0,4.2-1.9,4.2-4.2S17.2,0,14.9,0z M14.9,6.4
		c-1.2,0-2.2-1-2.2-2.2s1-2.2,2.2-2.2s2.2,1,2.2,2.2S16.1,6.4,14.9,6.4z"/>
</g>
<g>
	<path class="st0" d="M13.6,19.1c-0.9-0.8-2.1-1.4-3.6-1.7c-0.7,0.7-1.6,1.2-2.6,1.2c-1,0-1.9-0.5-2.6-1.2C2.1,17.8,0,19.6,0,21.7
		V23h12.4v-1.3C12.4,20.7,12.8,19.8,13.6,19.1z"/>
</g>
</svg>
