<?xml version="1.0" encoding="utf-8"?>
<!-- Generator: Adobe Illustrator 25.2.1, SVG Export Plug-In . SVG Version: 6.00 Build 0)  -->
<svg version="1.1" id="Layer_1" xmlns="http://www.w3.org/2000/svg" xmlns:xlink="http://www.w3.org/1999/xlink" x="0px" y="0px"
	 viewBox="0 0 21.7 21.7" style="enable-background:new 0 0 21.7 21.7;" xml:space="preserve">
<style type="text/css">
	.st0{fill:#0C5267;}
	.st1{fill:#187B98;}
</style>
<g>
	<path class="st0" d="M18.9,18.9H0V0h18.9V18.9z M1.5,17.4h15.9V1.5H1.5V17.4z"/>
</g>
<g>
	<polygon class="st0" points="21.7,21.7 3.6,21.7 3.6,20.2 20.2,20.2 20.2,3.6 21.7,3.6 	"/>
</g>
<g>
	<path class="st0" d="M4.3,4.3"/>
</g>
<g>
	<g>
		<polygon class="st1" points="15.8,8.7 10.8,8.7 10.8,7.2 14.3,7.2 14.3,4.6 14.3,4.6 14.3,3.1 15.8,3.1 		"/>
	</g>
	<g>
		<rect x="6" y="7.2" class="st1" width="3.4" height="1.5"/>
	</g>
	<g>
		<polygon class="st1" points="4.6,8.7 3.1,8.7 3.1,3.1 8.1,3.1 8.1,4.6 4.6,4.6 4.6,7.2 4.6,7.2 		"/>
	</g>
	<g>
		<rect x="9.5" y="3.1" class="st1" width="3.4" height="1.5"/>
	</g>
</g>
<g>
	<path class="st0" d="M4.3,11.4"/>
</g>
<g>
	<g>
		<polygon class="st1" points="15.8,15.8 10.8,15.8 10.8,14.3 14.3,14.3 14.3,11.7 14.3,11.7 14.3,10.2 15.8,10.2 		"/>
	</g>
	<g>
		<rect x="6" y="14.3" class="st1" width="3.4" height="1.5"/>
	</g>
	<g>
		<polygon class="st1" points="4.6,15.8 3.1,15.8 3.1,10.2 8.1,10.2 8.1,11.7 4.6,11.7 4.6,14.3 4.6,14.3 		"/>
	</g>
	<g>
		<rect x="9.5" y="10.2" class="st1" width="3.4" height="1.5"/>
	</g>
</g>
</svg>
