<?xml version="1.0" encoding="utf-8"?>
<!-- Generator: Adobe Illustrator 25.2.1, SVG Export Plug-In . SVG Version: 6.00 Build 0)  -->
<svg version="1.1" id="Layer_1" xmlns="http://www.w3.org/2000/svg" xmlns:xlink="http://www.w3.org/1999/xlink" x="0px" y="0px"
	 viewBox="0 0 26 22.6" style="enable-background:new 0 0 26 22.6;" xml:space="preserve">
<style type="text/css">
	.st0{fill:#0C5267;}
	.st1{fill:#187B98;}
</style>
<g>
	<polygon class="st0" points="3.7,22.6 22.3,22.6 20.6,19.6 5.3,19.6 	"/>
</g>
<g>
	
		<rect x="11.3" y="8.9" transform="matrix(-1 -4.493262e-11 4.493262e-11 -1 25.9874 29.2665)" class="st0" width="3.3" height="11.4"/>
</g>
<g>
	<rect x="16" y="3.1" class="st0" width="9.7" height="3"/>
</g>
<g>
	<rect x="0.3" y="3.1" class="st0" width="9.7" height="3"/>
</g>
<g>
	<g>
		<path class="st0" d="M8.4,4.6c0,2.6,2.1,4.6,4.6,4.6c2.6,0,4.6-2.1,4.6-4.6S15.5,0,13,0C10.4,0,8.4,2.1,8.4,4.6z M10.6,4.6
			c0-1.3,1.1-2.4,2.4-2.4s2.4,1.1,2.4,2.4S14.3,7,13,7S10.6,5.9,10.6,4.6z"/>
	</g>
</g>
<g>
	<g>
		
			<rect x="21" y="6.1" transform="matrix(-1 -4.496193e-11 4.496193e-11 -1 43.8535 15.422)" class="st1" width="1.8" height="3.2"/>
	</g>
	<g>
		<rect x="22.9" y="8" transform="matrix(0.7783 -0.6279 0.6279 0.7783 -1.3644 17.0575)" class="st1" width="1.2" height="4.9"/>
	</g>
	<g>
		<rect x="17.9" y="9.9" transform="matrix(0.6283 -0.778 0.778 0.6283 -0.562 19.7454)" class="st1" width="4.9" height="1.2"/>
	</g>
	<g>
		<path class="st1" d="M17.9,13.5c0,2.2,1.8,4.1,4.1,4.1s4.1-1.8,4.1-4.1H17.9z"/>
	</g>
</g>
<g>
	<g>
		
			<rect x="3.2" y="6.1" transform="matrix(-1 -4.496193e-11 4.496193e-11 -1 8.1258 15.422)" class="st0" width="1.8" height="3.2"/>
	</g>
	<g>
		<rect x="5" y="8" transform="matrix(0.7783 -0.6279 0.6279 0.7783 -5.325 5.8408)" class="st0" width="1.2" height="4.9"/>
	</g>
	<g>
		<rect x="0.1" y="9.9" transform="matrix(0.6283 -0.778 0.778 0.6283 -7.2027 5.8474)" class="st0" width="4.9" height="1.2"/>
	</g>
	<g>
		<path class="st0" d="M0,13.5c0,2.2,1.8,4.1,4.1,4.1s4.1-1.8,4.1-4.1H0z"/>
	</g>
</g>
</svg>
