<?xml version="1.0" encoding="utf-8"?>
<!-- Generator: Adobe Illustrator 25.2.1, SVG Export Plug-In . SVG Version: 6.00 Build 0)  -->
<svg version="1.1" id="Layer_1" xmlns="http://www.w3.org/2000/svg" xmlns:xlink="http://www.w3.org/1999/xlink" x="0px" y="0px"
	 viewBox="0 0 31.9 23.1" style="enable-background:new 0 0 31.9 23.1;" xml:space="preserve">
<style type="text/css">
	.st0{fill:#0C5267;}
	.st1{fill:#187B98;}
</style>
<g>
	<g>
		<path class="st0" d="M27,23.1v-1.9c0-3.1-3.1-5.7-7.2-6.4c-1,1.1-2.4,1.8-3.8,1.8c-1.5,0-2.8-0.7-3.8-1.8
			c-4.1,0.7-7.2,3.3-7.2,6.4v1.9H27z"/>
	</g>
</g>
<g>
	<circle class="st0" cx="15.9" cy="9.1" r="5.1"/>
</g>
<g>
	<g>
		<circle class="st1" cx="7" cy="3.2" r="3.2"/>
	</g>
</g>
<g>
	<path class="st1" d="M8.6,9.1c0-0.7,0.1-1.3,0.3-1.9C8.4,7.7,7.7,7.9,7,7.9c-0.9,0-1.8-0.4-2.4-1.1C2,7.2,0,8.9,0,10.9v1.2h9.4
		C8.9,11.2,8.6,10.2,8.6,9.1z"/>
</g>
<g>
	<path class="st0" d="M27.3,6.8c-0.6,0.7-1.5,1.1-2.4,1.1c-0.7,0-1.4-0.2-1.9-0.6c0.2,0.6,0.3,1.2,0.3,1.9c0,1.1-0.3,2.1-0.7,3h9.4
		v-1.2C31.9,8.9,29.9,7.2,27.3,6.8z"/>
</g>
<g>
	<circle class="st0" cx="24.9" cy="3.2" r="3.2"/>
</g>
</svg>
