<?xml version="1.0" encoding="utf-8"?>
<!-- Generator: Adobe Illustrator 25.2.1, SVG Export Plug-In . SVG Version: 6.00 Build 0)  -->
<svg version="1.1" id="Layer_1" xmlns="http://www.w3.org/2000/svg" xmlns:xlink="http://www.w3.org/1999/xlink" x="0px" y="0px"
	 viewBox="0 0 25.2 25.2" style="enable-background:new 0 0 25.2 25.2;" xml:space="preserve">
<style type="text/css">
	.st0{fill:#0C5267;}
	.st1{fill:#187B98;}
</style>
<path class="st0" d="M12.6,0C5.6,0,0,5.6,0,12.6c0,7,5.6,12.6,12.6,12.6c7,0,12.6-5.6,12.6-12.6C25.2,5.6,19.5,0,12.6,0z M12.6,22.8
	C7,22.8,2.4,18.2,2.4,12.6S7,2.4,12.6,2.4S22.8,7,22.8,12.6S18.2,22.8,12.6,22.8z"/>
<circle class="st1" cx="12.6" cy="6.2" r="1.7"/>
<circle class="st1" cx="7.6" cy="9.1" r="1.7"/>
<circle class="st1" cx="18.3" cy="9.1" r="1.7"/>
<polygon class="st1" points="11.1,18.3 12.6,9.9 14,18.3 "/>
</svg>
